<?xml version="1.0" encoding="UTF-8"?>
<svg version="1.1" viewBox="0 0 100 150" xmlns="http://www.w3.org/2000/svg">
    <defs>
        <symbol id="card" viewBox="0 0 100 150">
            <path d="#fff" />
        </symbol>
        <symbol id="suit" viewBox="0 0 24 24">
            <path d="M20.302 24H3.796l.156-.663q3.211-.682 4.263-1.345 1.576-.994 2.569-2.944 1.012-1.95 1.012-4.114 0-.312-.02-.897-1.187 2.418-2.9 3.53-1.693 1.11-3.464 1.11-2.258 0-3.835-1.579T0 13.218q0-2.261 1.44-3.801 1.441-1.56 3.271-1.56 1.168 0 3.173.994-.818-1.364-1.07-2.047-.234-.702-.234-1.5 0-2.223 1.537-3.764T11.952 0t3.854 1.54q1.576 1.54 1.576 3.666 0 1.735-1.343 3.645 1.635-.78 1.966-.877.526-.156 1.188-.156 1.946 0 3.367 1.54Q24 10.88 24 13.141q0 2.34-1.576 3.938-1.557 1.58-3.757 1.58-1.226 0-2.53-.586-1.285-.604-2.239-1.599-.681-.72-1.693-2.437.078 3.1.934 4.914.876 1.793 2.667 2.983 1.207.799 4.34 1.403z" />
        </symbol>
        <symbol id="rank" viewBox="0 0 24 24">
            <path d="M22.864 24h-3.401l-2.353-6.69H6.73L4.377 24h-3.24L9.873 0h4.255zm-6.737-9.43L11.92 2.79 7.697 14.57z" />
        </symbol>
    </defs>
    <use href="#card" x="0" y="0" fill="#fff" />
    <use href="#rank" x="5" y="-64" fill="#000" width="12" />
    <use href="#suit" x="5" y="-48" fill="#000" width="12" />
    <use href="#rank" x="5" y="-64" fill="#000" width="12" transform="rotate(180, 50, 75)" />
    <use href="#suit" x="5" y="-48" fill="#000" width="12" transform="rotate(180, 50, 75)" />
    <use href="#suit" x="26" y="0" fill="#000" width="48"/>
</svg>