<?xml version="1.0" encoding="UTF-8"?>
<svg version="1.1" viewBox="0 0 100 150" xmlns="http://www.w3.org/2000/svg">
    <defs>
        <symbol id="card" viewBox="0 0 100 150">
            <path d="#fff" />
        </symbol>
        <symbol id="suit" viewBox="0 0 24 24">
            <path d="M20.302 24H3.796l.156-.663q3.211-.682 4.263-1.345 1.576-.994 2.569-2.944 1.012-1.95 1.012-4.114 0-.312-.02-.897-1.187 2.418-2.9 3.53-1.693 1.11-3.464 1.11-2.258 0-3.835-1.579T0 13.218q0-2.261 1.44-3.801 1.441-1.56 3.271-1.56 1.168 0 3.173.994-.818-1.364-1.07-2.047-.234-.702-.234-1.5 0-2.223 1.537-3.764T11.952 0t3.854 1.54q1.576 1.54 1.576 3.666 0 1.735-1.343 3.645 1.635-.78 1.966-.877.526-.156 1.188-.156 1.946 0 3.367 1.54Q24 10.88 24 13.141q0 2.34-1.576 3.938-1.557 1.58-3.757 1.58-1.226 0-2.53-.586-1.285-.604-2.239-1.599-.681-.72-1.693-2.437.078 3.1.934 4.914.876 1.793 2.667 2.983 1.207.799 4.34 1.403z" />
        </symbol>
        <symbol id="rank" viewBox="0 0 24 24">
            <path d="M20.154 17.079q0 2.975-2.328 4.948Q15.514 24 12 24q-3.73 0-5.95-1.927-2.204-1.927-2.204-4.932 0-1.912 1.11-3.453 1.11-1.557 3.129-2.467v-.092q-1.85-.986-2.744-2.158-.879-1.171-.879-2.929 0-2.59 2.127-4.316Q8.717 0 12 0q3.438 0 5.488 1.65 2.05 1.649 2.05 4.192 0 1.557-.97 3.067-.972 1.496-2.852 2.343v.093q2.158.925 3.298 2.281 1.141 1.357 1.141 3.453zM16.501 5.873q0-1.65-1.28-2.62-1.264-.987-3.237-.987-1.942 0-3.19.925-1.234.925-1.234 2.497 0 1.11.617 1.927.632.801 1.896 1.433.57.278 1.634.725 1.079.447 2.096.74Q15.33 9.495 15.915 8.4q.586-1.094.586-2.528zm.478 11.499q0-1.418-.632-2.266-.617-.863-2.436-1.726-.724-.34-1.588-.632-.863-.293-2.296-.817-1.388.755-2.235 2.05-.833 1.295-.833 2.929 0 2.08 1.434 3.437t3.638 1.356q2.25 0 3.591-1.156 1.357-1.156 1.357-3.175z" />
        </symbol>
    </defs>
    <use href="#card" x="0" y="0" fill="#fff" />
    <use href="#rank" x="5" y="-64" fill="#000" width="12" />
    <use href="#suit" x="5" y="-48" fill="#000" width="12" />
    <use href="#rank" x="5" y="-64" fill="#000" width="12" transform="rotate(180, 50, 75)" />
    <use href="#suit" x="5" y="-48" fill="#000" width="12" transform="rotate(180, 50, 75)" />
    <use href="#suit" x="26" y="0" fill="#000" width="48"/>
</svg>