<?xml version="1.0" encoding="UTF-8"?>
<svg version="1.1" viewBox="0 0 100 150" xmlns="http://www.w3.org/2000/svg">
    <defs>
        <symbol id="card" viewBox="0 0 100 150">
            <path d="#fff" />
        </symbol>
        <symbol id="suit" viewBox="0 0 24 24">
            <path d="M12.019 0q.507 2.106 1.56 3.763 1.052 1.657 3.743 4.114 2.71 2.437 3.431 3.743t.722 2.651q0 1.872-1.248 3.12t-3.041 1.248q-1.521 0-2.769-.936-1.228-.956-2.184-2.769.02 2.866.741 4.562.741 1.677 2.34 2.652 1.618.955 4.29 1.13l.136.722H4.279l.156-.721q3.587 0 5.556-2.087 1.989-2.105 1.91-6.258-.877 1.852-2.183 2.788-1.287.917-2.924.917-1.755 0-3.022-1.268-1.248-1.267-1.248-3.041 0-1.423.643-2.574.878-1.598 2.847-3.217 1.969-1.618 2.905-2.67 1.423-1.619 2.066-2.886Q11.648 1.716 12.02 0z" />
        </symbol>
        <symbol id="rank" viewBox="0 0 24 24">
            <path d="M20.154 17.079q0 2.975-2.328 4.948Q15.514 24 12 24q-3.73 0-5.95-1.927-2.204-1.927-2.204-4.932 0-1.912 1.11-3.453 1.11-1.557 3.129-2.467v-.092q-1.85-.986-2.744-2.158-.879-1.171-.879-2.929 0-2.59 2.127-4.316Q8.717 0 12 0q3.438 0 5.488 1.65 2.05 1.649 2.05 4.192 0 1.557-.97 3.067-.972 1.496-2.852 2.343v.093q2.158.925 3.298 2.281 1.141 1.357 1.141 3.453zM16.501 5.873q0-1.65-1.28-2.62-1.264-.987-3.237-.987-1.942 0-3.19.925-1.234.925-1.234 2.497 0 1.11.617 1.927.632.801 1.896 1.433.57.278 1.634.725 1.079.447 2.096.74Q15.33 9.495 15.915 8.4q.586-1.094.586-2.528zm.478 11.499q0-1.418-.632-2.266-.617-.863-2.436-1.726-.724-.34-1.588-.632-.863-.293-2.296-.817-1.388.755-2.235 2.05-.833 1.295-.833 2.929 0 2.08 1.434 3.437t3.638 1.356q2.25 0 3.591-1.156 1.357-1.156 1.357-3.175z" />
        </symbol>
    </defs>
    <use href="#card" x="0" y="0" fill="#fff" />
    <use href="#rank" x="5" y="-64" fill="#000" width="12" />
    <use href="#suit" x="5" y="-48" fill="#000" width="12" />
    <use href="#rank" x="5" y="-64" fill="#000" width="12" transform="rotate(180, 50, 75)" />
    <use href="#suit" x="5" y="-48" fill="#000" width="12" transform="rotate(180, 50, 75)" />
    <use href="#suit" x="26" y="0" fill="#000" width="48"/>
</svg>