<?xml version="1.0" encoding="UTF-8"?>
<svg version="1.1" viewBox="0 0 100 150" xmlns="http://www.w3.org/2000/svg">
    <defs>
        <symbol id="card" viewBox="0 0 100 150">
            <path d="#fff" />
        </symbol>
        <symbol id="suit" viewBox="0 0 24 24">
            <path d="M12.019 0q.507 2.106 1.56 3.763 1.052 1.657 3.743 4.114 2.71 2.437 3.431 3.743t.722 2.651q0 1.872-1.248 3.12t-3.041 1.248q-1.521 0-2.769-.936-1.228-.956-2.184-2.769.02 2.866.741 4.562.741 1.677 2.34 2.652 1.618.955 4.29 1.13l.136.722H4.279l.156-.721q3.587 0 5.556-2.087 1.989-2.105 1.91-6.258-.877 1.852-2.183 2.788-1.287.917-2.924.917-1.755 0-3.022-1.268-1.248-1.267-1.248-3.041 0-1.423.643-2.574.878-1.598 2.847-3.217 1.969-1.618 2.905-2.67 1.423-1.619 2.066-2.886Q11.648 1.716 12.02 0z" />
        </symbol>
        <symbol id="rank" viewBox="0 0 24 24">
            <path d="M19.658 16.042q0 1.642-.6 3.142t-1.642 2.526q-1.137 1.106-2.716 1.706Q13.137 24 11.07 24q-1.927 0-3.711-.41-1.784-.395-3.016-.964v-3.331h.221q1.295.82 3.032 1.405 1.737.568 3.41.568 1.121 0 2.164-.315 1.057-.316 1.879-1.106.694-.679 1.042-1.626.363-.947.363-2.195 0-1.216-.427-2.052-.41-.837-1.152-1.342-.821-.6-2.005-.837-1.169-.253-2.622-.253-1.389 0-2.684.19-1.279.189-2.21.379V-.002H19.5v2.764H8.4v6.252q.679-.063 1.39-.094.71-.032 1.23-.032 1.911 0 3.348.332 1.437.315 2.637 1.136 1.263.869 1.958 2.242.695 1.374.695 3.443z" />
        </symbol>
    </defs>
    <use href="#card" x="0" y="0" fill="#fff" />
    <use href="#rank" x="5" y="-64" fill="#000" width="12" />
    <use href="#suit" x="5" y="-48" fill="#000" width="12" />
    <use href="#rank" x="5" y="-64" fill="#000" width="12" transform="rotate(180, 50, 75)" />
    <use href="#suit" x="5" y="-48" fill="#000" width="12" transform="rotate(180, 50, 75)" />
    <use href="#suit" x="26" y="0" fill="#000" width="48"/>
</svg>