<?xml version="1.0" encoding="UTF-8"?>
<svg version="1.1" viewBox="0 0 100 150" xmlns="http://www.w3.org/2000/svg">
    <defs>
        <symbol id="card" viewBox="0 0 100 150">
            <path d="#fff" />
        </symbol>
        <symbol id="suit" viewBox="0 0 24 24">
            <path d="M11.962 0q1.702 2.888 4.188 6.196 2.869 3.825 4.628 5.794-1.415 1.492-4.628 5.776-2.6 3.48-4.169 6.234-.516-.994-1.415-2.314-1.549-2.295-3.844-5.335-.497-.67-3.5-4.36 1.932-2.2 4.973-6.273Q10.45 2.696 11.962 0z" />
        </symbol>
        <symbol id="rank" viewBox="0 0 24 24">
            <path d="M19.658 16.042q0 1.642-.6 3.142t-1.642 2.526q-1.137 1.106-2.716 1.706Q13.137 24 11.07 24q-1.927 0-3.711-.41-1.784-.395-3.016-.964v-3.331h.221q1.295.82 3.032 1.405 1.737.568 3.41.568 1.121 0 2.164-.315 1.057-.316 1.879-1.106.694-.679 1.042-1.626.363-.947.363-2.195 0-1.216-.427-2.052-.41-.837-1.152-1.342-.821-.6-2.005-.837-1.169-.253-2.622-.253-1.389 0-2.684.19-1.279.189-2.21.379V-.002H19.5v2.764H8.4v6.252q.679-.063 1.39-.094.71-.032 1.23-.032 1.911 0 3.348.332 1.437.315 2.637 1.136 1.263.869 1.958 2.242.695 1.374.695 3.443z" />
        </symbol>
    </defs>
    <use href="#card" x="0" y="0" fill="#fff" />
    <use href="#rank" x="5" y="-64" fill="#f00" width="12" />
    <use href="#suit" x="5" y="-48" fill="#f00" width="12" />
    <use href="#rank" x="5" y="-64" fill="#f00" width="12" transform="rotate(180, 50, 75)" />
    <use href="#suit" x="5" y="-48" fill="#f00" width="12" transform="rotate(180, 50, 75)" />
    <use href="#suit" x="26" y="0" fill="#f00" width="48"/>
</svg>