<?xml version="1.0" encoding="UTF-8"?>
<svg version="1.1" viewBox="0 0 100 150" xmlns="http://www.w3.org/2000/svg">
    <defs>
        <symbol id="card" viewBox="0 0 100 150">
            <path d="#fff" />
        </symbol>
        <symbol id="suit" viewBox="0 0 24 24">
            <path d="M20.302 24H3.796l.156-.663q3.211-.682 4.263-1.345 1.576-.994 2.569-2.944 1.012-1.95 1.012-4.114 0-.312-.02-.897-1.187 2.418-2.9 3.53-1.693 1.11-3.464 1.11-2.258 0-3.835-1.579T0 13.218q0-2.261 1.44-3.801 1.441-1.56 3.271-1.56 1.168 0 3.173.994-.818-1.364-1.07-2.047-.234-.702-.234-1.5 0-2.223 1.537-3.764T11.952 0t3.854 1.54q1.576 1.54 1.576 3.666 0 1.735-1.343 3.645 1.635-.78 1.966-.877.526-.156 1.188-.156 1.946 0 3.367 1.54Q24 10.88 24 13.141q0 2.34-1.576 3.938-1.557 1.58-3.757 1.58-1.226 0-2.53-.586-1.285-.604-2.239-1.599-.681-.72-1.693-2.437.078 3.1.934 4.914.876 1.793 2.667 2.983 1.207.799 4.34 1.403z" />
        </symbol>
        <symbol id="rank" viewBox="0 0 24 24">
            <path d="M19.658 16.042q0 1.642-.6 3.142t-1.642 2.526q-1.137 1.106-2.716 1.706Q13.137 24 11.07 24q-1.927 0-3.711-.41-1.784-.395-3.016-.964v-3.331h.221q1.295.82 3.032 1.405 1.737.568 3.41.568 1.121 0 2.164-.315 1.057-.316 1.879-1.106.694-.679 1.042-1.626.363-.947.363-2.195 0-1.216-.427-2.052-.41-.837-1.152-1.342-.821-.6-2.005-.837-1.169-.253-2.622-.253-1.389 0-2.684.19-1.279.189-2.21.379V-.002H19.5v2.764H8.4v6.252q.679-.063 1.39-.094.71-.032 1.23-.032 1.911 0 3.348.332 1.437.315 2.637 1.136 1.263.869 1.958 2.242.695 1.374.695 3.443z" />
        </symbol>
    </defs>
    <use href="#card" x="0" y="0" fill="#fff" />
    <use href="#rank" x="5" y="-64" fill="#000" width="12" />
    <use href="#suit" x="5" y="-48" fill="#000" width="12" />
    <use href="#rank" x="5" y="-64" fill="#000" width="12" transform="rotate(180, 50, 75)" />
    <use href="#suit" x="5" y="-48" fill="#000" width="12" transform="rotate(180, 50, 75)" />
    <use href="#suit" x="26" y="0" fill="#000" width="48"/>
</svg>