<?xml version="1.0" encoding="UTF-8"?>
<svg version="1.1" viewBox="0 0 100 150" xmlns="http://www.w3.org/2000/svg">
    <defs>
        <symbol id="card" viewBox="0 0 100 150">
            <path d="#fff" />
        </symbol>
        <symbol id="suit" viewBox="0 0 24 24">
            <path d="M12.038 24q-.593-2.257-1.702-4.226-1.09-1.99-4.245-6.158-2.314-3.06-2.85-3.882-.88-1.339-1.281-2.448-.383-1.128-.383-2.276 0-2.122 1.416-3.557Q4.408.02 6.493.02q2.103 0 3.652 1.492 1.166 1.109 1.893 3.308.631-2.161 1.778-3.29Q15.404 0 17.488 0q2.065 0 3.5 1.435 1.434 1.415 1.434 3.385 0 1.721-.841 3.595-.842 1.855-3.251 4.877-3.137 3.958-4.57 6.502Q12.63 21.8 12.037 24z" />
        </symbol>
        <symbol id="rank" viewBox="0 0 24 24">
            <path d="M19.658 16.042q0 1.642-.6 3.142t-1.642 2.526q-1.137 1.106-2.716 1.706Q13.137 24 11.07 24q-1.927 0-3.711-.41-1.784-.395-3.016-.964v-3.331h.221q1.295.82 3.032 1.405 1.737.568 3.41.568 1.121 0 2.164-.315 1.057-.316 1.879-1.106.694-.679 1.042-1.626.363-.947.363-2.195 0-1.216-.427-2.052-.41-.837-1.152-1.342-.821-.6-2.005-.837-1.169-.253-2.622-.253-1.389 0-2.684.19-1.279.189-2.21.379V-.002H19.5v2.764H8.4v6.252q.679-.063 1.39-.094.71-.032 1.23-.032 1.911 0 3.348.332 1.437.315 2.637 1.136 1.263.869 1.958 2.242.695 1.374.695 3.443z" />
        </symbol>
    </defs>
    <use href="#card" x="0" y="0" fill="#fff" />
    <use href="#rank" x="5" y="-64" fill="#f00" width="12" />
    <use href="#suit" x="5" y="-48" fill="#f00" width="12" />
    <use href="#rank" x="5" y="-64" fill="#f00" width="12" transform="rotate(180, 50, 75)" />
    <use href="#suit" x="5" y="-48" fill="#f00" width="12" transform="rotate(180, 50, 75)" />
    <use href="#suit" x="26" y="0" fill="#f00" width="48"/>
</svg>