<?xml version="1.0" encoding="UTF-8"?>
<svg version="1.1" viewBox="0 0 100 150" xmlns="http://www.w3.org/2000/svg">
    <defs>
        <symbol id="card" viewBox="0 0 100 150">
            <path d="#fff" />
        </symbol>
        <symbol id="suit" viewBox="0 0 24 24">
            <path d="M11.962 0q1.702 2.888 4.188 6.196 2.869 3.825 4.628 5.794-1.415 1.492-4.628 5.776-2.6 3.48-4.169 6.234-.516-.994-1.415-2.314-1.549-2.295-3.844-5.335-.497-.67-3.5-4.36 1.932-2.2 4.973-6.273Q10.45 2.696 11.962 0z" />
        </symbol>
        <symbol id="rank" viewBox="0 0 24 24">
            <path d="M21.075 17.246h-3.562v6.753h-3.095v-6.753H2.926v-3.707L14.547-.001h2.966v14.669h3.562zm-6.657-2.579V3.837l-9.3 10.83z" />
        </symbol>
    </defs>
    <use href="#card" x="0" y="0" fill="#fff" />
    <use href="#rank" x="5" y="-64" fill="#f00" width="12" />
    <use href="#suit" x="5" y="-48" fill="#f00" width="12" />
    <use href="#rank" x="5" y="-64" fill="#f00" width="12" transform="rotate(180, 50, 75)" />
    <use href="#suit" x="5" y="-48" fill="#f00" width="12" transform="rotate(180, 50, 75)" />
    <use href="#suit" x="26" y="0" fill="#f00" width="48"/>
</svg>