<?xml version="1.0" encoding="UTF-8"?>
<svg version="1.1" viewBox="0 0 100 150" xmlns="http://www.w3.org/2000/svg">
    <defs>
        <symbol id="card" viewBox="0 0 100 150">
            <path d="#fff" />
        </symbol>
        <symbol id="suit" viewBox="0 0 24 24">
            <path d="M12.038 24q-.593-2.257-1.702-4.226-1.09-1.99-4.245-6.158-2.314-3.06-2.85-3.882-.88-1.339-1.281-2.448-.383-1.128-.383-2.276 0-2.122 1.416-3.557Q4.408.02 6.493.02q2.103 0 3.652 1.492 1.166 1.109 1.893 3.308.631-2.161 1.778-3.29Q15.404 0 17.488 0q2.065 0 3.5 1.435 1.434 1.415 1.434 3.385 0 1.721-.841 3.595-.842 1.855-3.251 4.877-3.137 3.958-4.57 6.502Q12.63 21.8 12.037 24z" />
        </symbol>
        <symbol id="rank" viewBox="0 0 24 24">
            <path d="M21.075 17.246h-3.562v6.753h-3.095v-6.753H2.926v-3.707L14.547-.001h2.966v14.669h3.562zm-6.657-2.579V3.837l-9.3 10.83z" />
        </symbol>
    </defs>
    <use href="#card" x="0" y="0" fill="#fff" />
    <use href="#rank" x="5" y="-64" fill="#f00" width="12" />
    <use href="#suit" x="5" y="-48" fill="#f00" width="12" />
    <use href="#rank" x="5" y="-64" fill="#f00" width="12" transform="rotate(180, 50, 75)" />
    <use href="#suit" x="5" y="-48" fill="#f00" width="12" transform="rotate(180, 50, 75)" />
    <use href="#suit" x="26" y="0" fill="#f00" width="48"/>
</svg>