<?xml version="1.0" encoding="UTF-8"?>
<svg version="1.1" viewBox="0 0 100 150" xmlns="http://www.w3.org/2000/svg">
    <defs>
        <symbol id="card" viewBox="0 0 100 150">
            <path d="#fff" />
        </symbol>
        <symbol id="suit" viewBox="0 0 24 24">
            <path d="M12.019 0q.507 2.106 1.56 3.763 1.052 1.657 3.743 4.114 2.71 2.437 3.431 3.743t.722 2.651q0 1.872-1.248 3.12t-3.041 1.248q-1.521 0-2.769-.936-1.228-.956-2.184-2.769.02 2.866.741 4.562.741 1.677 2.34 2.652 1.618.955 4.29 1.13l.136.722H4.279l.156-.721q3.587 0 5.556-2.087 1.989-2.105 1.91-6.258-.877 1.852-2.183 2.788-1.287.917-2.924.917-1.755 0-3.022-1.268-1.248-1.267-1.248-3.041 0-1.423.643-2.574.878-1.598 2.847-3.217 1.969-1.618 2.905-2.67 1.423-1.619 2.066-2.886Q11.648 1.716 12.02 0z" />
        </symbol>
        <symbol id="rank" viewBox="0 0 24 24">
            <path d="M20.171 10.62q0 3.023-.698 5.488-.682 2.465-2.077 4.202-1.411 1.767-3.535 2.729-2.124.96-4.992.96-.806 0-1.52-.092-.713-.078-1.271-.264v-2.96h.155q.45.232 1.271.449.822.201 1.83.201 3.426 0 5.364-2.046 1.954-2.062 2.264-5.675-1.442.869-2.713 1.24-1.272.373-2.776.373-1.426 0-2.589-.28-1.147-.278-2.31-1.085-1.364-.945-2.062-2.403Q3.83 10 3.83 7.97q0-3.535 2.326-5.752Q8.48 0 11.83 0q1.674 0 3.1.527 1.427.512 2.497 1.55 1.318 1.287 2.03 3.318.714 2.016.714 5.225zm-3.132-.667q0-2.403-.496-3.86T15.18 3.829q-.729-.697-1.566-.992-.837-.31-1.814-.31-2.233 0-3.535 1.395-1.287 1.396-1.287 3.923 0 1.473.419 2.403.418.93 1.41 1.628.698.48 1.536.65.837.156 1.86.156 1.21 0 2.45-.326 1.24-.325 2.325-.945l.031-.636q.031-.326.031-.822z" />
        </symbol>
    </defs>
    <use href="#card" x="0" y="0" fill="#fff" />
    <use href="#rank" x="5" y="-64" fill="#000" width="12" />
    <use href="#suit" x="5" y="-48" fill="#000" width="12" />
    <use href="#rank" x="5" y="-64" fill="#000" width="12" transform="rotate(180, 50, 75)" />
    <use href="#suit" x="5" y="-48" fill="#000" width="12" transform="rotate(180, 50, 75)" />
    <use href="#suit" x="26" y="0" fill="#000" width="48"/>
</svg>