<?xml version="1.0" encoding="UTF-8"?>
<svg version="1.1" viewBox="0 0 100 150" xmlns="http://www.w3.org/2000/svg">
    <defs>
        <symbol id="card" viewBox="0 0 100 150">
            <path d="#fff" />
        </symbol>
        <symbol id="suit" viewBox="0 0 24 24">
            <path d="M20.302 24H3.796l.156-.663q3.211-.682 4.263-1.345 1.576-.994 2.569-2.944 1.012-1.95 1.012-4.114 0-.312-.02-.897-1.187 2.418-2.9 3.53-1.693 1.11-3.464 1.11-2.258 0-3.835-1.579T0 13.218q0-2.261 1.44-3.801 1.441-1.56 3.271-1.56 1.168 0 3.173.994-.818-1.364-1.07-2.047-.234-.702-.234-1.5 0-2.223 1.537-3.764T11.952 0t3.854 1.54q1.576 1.54 1.576 3.666 0 1.735-1.343 3.645 1.635-.78 1.966-.877.526-.156 1.188-.156 1.946 0 3.367 1.54Q24 10.88 24 13.141q0 2.34-1.576 3.938-1.557 1.58-3.757 1.58-1.226 0-2.53-.586-1.285-.604-2.239-1.599-.681-.72-1.693-2.437.078 3.1.934 4.914.876 1.793 2.667 2.983 1.207.799 4.34 1.403z" />
        </symbol>
        <symbol id="rank" viewBox="0 0 24 24">
            <path d="M20.171 10.62q0 3.023-.698 5.488-.682 2.465-2.077 4.202-1.411 1.767-3.535 2.729-2.124.96-4.992.96-.806 0-1.52-.092-.713-.078-1.271-.264v-2.96h.155q.45.232 1.271.449.822.201 1.83.201 3.426 0 5.364-2.046 1.954-2.062 2.264-5.675-1.442.869-2.713 1.24-1.272.373-2.776.373-1.426 0-2.589-.28-1.147-.278-2.31-1.085-1.364-.945-2.062-2.403Q3.83 10 3.83 7.97q0-3.535 2.326-5.752Q8.48 0 11.83 0q1.674 0 3.1.527 1.427.512 2.497 1.55 1.318 1.287 2.03 3.318.714 2.016.714 5.225zm-3.132-.667q0-2.403-.496-3.86T15.18 3.829q-.729-.697-1.566-.992-.837-.31-1.814-.31-2.233 0-3.535 1.395-1.287 1.396-1.287 3.923 0 1.473.419 2.403.418.93 1.41 1.628.698.48 1.536.65.837.156 1.86.156 1.21 0 2.45-.326 1.24-.325 2.325-.945l.031-.636q.031-.326.031-.822z" />
        </symbol>
    </defs>
    <use href="#card" x="0" y="0" fill="#fff" />
    <use href="#rank" x="5" y="-64" fill="#000" width="12" />
    <use href="#suit" x="5" y="-48" fill="#000" width="12" />
    <use href="#rank" x="5" y="-64" fill="#000" width="12" transform="rotate(180, 50, 75)" />
    <use href="#suit" x="5" y="-48" fill="#000" width="12" transform="rotate(180, 50, 75)" />
    <use href="#suit" x="26" y="0" fill="#000" width="48"/>
</svg>