<?xml version="1.0" encoding="UTF-8"?>
<svg version="1.1" viewBox="0 0 100 150" xmlns="http://www.w3.org/2000/svg">
    <defs>
        <symbol id="card" viewBox="0 0 100 150">
            <path d="#fff" />
        </symbol>
        <symbol id="suit" viewBox="0 0 24 24">
            <path d="M11.962 0q1.702 2.888 4.188 6.196 2.869 3.825 4.628 5.794-1.415 1.492-4.628 5.776-2.6 3.48-4.169 6.234-.516-.994-1.415-2.314-1.549-2.295-3.844-5.335-.497-.67-3.5-4.36 1.932-2.2 4.973-6.273Q10.45 2.696 11.962 0z" />
        </symbol>
        <symbol id="rank" viewBox="0 0 24 24">
            <path d="M20.171 10.62q0 3.023-.698 5.488-.682 2.465-2.077 4.202-1.411 1.767-3.535 2.729-2.124.96-4.992.96-.806 0-1.52-.092-.713-.078-1.271-.264v-2.96h.155q.45.232 1.271.449.822.201 1.83.201 3.426 0 5.364-2.046 1.954-2.062 2.264-5.675-1.442.869-2.713 1.24-1.272.373-2.776.373-1.426 0-2.589-.28-1.147-.278-2.31-1.085-1.364-.945-2.062-2.403Q3.83 10 3.83 7.97q0-3.535 2.326-5.752Q8.48 0 11.83 0q1.674 0 3.1.527 1.427.512 2.497 1.55 1.318 1.287 2.03 3.318.714 2.016.714 5.225zm-3.132-.667q0-2.403-.496-3.86T15.18 3.829q-.729-.697-1.566-.992-.837-.31-1.814-.31-2.233 0-3.535 1.395-1.287 1.396-1.287 3.923 0 1.473.419 2.403.418.93 1.41 1.628.698.48 1.536.65.837.156 1.86.156 1.21 0 2.45-.326 1.24-.325 2.325-.945l.031-.636q.031-.326.031-.822z" />
        </symbol>
    </defs>
    <use href="#card" x="0" y="0" fill="#fff" />
    <use href="#rank" x="5" y="-64" fill="#f00" width="12" />
    <use href="#suit" x="5" y="-48" fill="#f00" width="12" />
    <use href="#rank" x="5" y="-64" fill="#f00" width="12" transform="rotate(180, 50, 75)" />
    <use href="#suit" x="5" y="-48" fill="#f00" width="12" transform="rotate(180, 50, 75)" />
    <use href="#suit" x="26" y="0" fill="#f00" width="48"/>
</svg>