<?xml version="1.0" encoding="UTF-8"?>
<svg version="1.1" viewBox="0 0 100 150" xmlns="http://www.w3.org/2000/svg">
    <defs>
        <symbol id="card" viewBox="0 0 100 150">
            <path d="#fff" />
        </symbol>
        <symbol id="suit" viewBox="0 0 24 24">
            <path d="M12.038 24q-.593-2.257-1.702-4.226-1.09-1.99-4.245-6.158-2.314-3.06-2.85-3.882-.88-1.339-1.281-2.448-.383-1.128-.383-2.276 0-2.122 1.416-3.557Q4.408.02 6.493.02q2.103 0 3.652 1.492 1.166 1.109 1.893 3.308.631-2.161 1.778-3.29Q15.404 0 17.488 0q2.065 0 3.5 1.435 1.434 1.415 1.434 3.385 0 1.721-.841 3.595-.842 1.855-3.251 4.877-3.137 3.958-4.57 6.502Q12.63 21.8 12.037 24z" />
        </symbol>
        <symbol id="rank" viewBox="0 0 24 24">
            <path d="M20.171 10.62q0 3.023-.698 5.488-.682 2.465-2.077 4.202-1.411 1.767-3.535 2.729-2.124.96-4.992.96-.806 0-1.52-.092-.713-.078-1.271-.264v-2.96h.155q.45.232 1.271.449.822.201 1.83.201 3.426 0 5.364-2.046 1.954-2.062 2.264-5.675-1.442.869-2.713 1.24-1.272.373-2.776.373-1.426 0-2.589-.28-1.147-.278-2.31-1.085-1.364-.945-2.062-2.403Q3.83 10 3.83 7.97q0-3.535 2.326-5.752Q8.48 0 11.83 0q1.674 0 3.1.527 1.427.512 2.497 1.55 1.318 1.287 2.03 3.318.714 2.016.714 5.225zm-3.132-.667q0-2.403-.496-3.86T15.18 3.829q-.729-.697-1.566-.992-.837-.31-1.814-.31-2.233 0-3.535 1.395-1.287 1.396-1.287 3.923 0 1.473.419 2.403.418.93 1.41 1.628.698.48 1.536.65.837.156 1.86.156 1.21 0 2.45-.326 1.24-.325 2.325-.945l.031-.636q.031-.326.031-.822z" />
        </symbol>
    </defs>
    <use href="#card" x="0" y="0" fill="#fff" />
    <use href="#rank" x="5" y="-64" fill="#f00" width="12" />
    <use href="#suit" x="5" y="-48" fill="#f00" width="12" />
    <use href="#rank" x="5" y="-64" fill="#f00" width="12" transform="rotate(180, 50, 75)" />
    <use href="#suit" x="5" y="-48" fill="#f00" width="12" transform="rotate(180, 50, 75)" />
    <use href="#suit" x="26" y="0" fill="#f00" width="48"/>
</svg>