<?xml version="1.0" encoding="UTF-8"?>
<svg version="1.1" viewBox="0 0 100 150" xmlns="http://www.w3.org/2000/svg">
    <defs>
        <symbol id="card" viewBox="0 0 100 150">
            <path d="#fff" />
        </symbol>
        <symbol id="suit" viewBox="0 0 24 24">
            <path d="M12.038 24q-.593-2.257-1.702-4.226-1.09-1.99-4.245-6.158-2.314-3.06-2.85-3.882-.88-1.339-1.281-2.448-.383-1.128-.383-2.276 0-2.122 1.416-3.557Q4.408.02 6.493.02q2.103 0 3.652 1.492 1.166 1.109 1.893 3.308.631-2.161 1.778-3.29Q15.404 0 17.488 0q2.065 0 3.5 1.435 1.434 1.415 1.434 3.385 0 1.721-.841 3.595-.842 1.855-3.251 4.877-3.137 3.958-4.57 6.502Q12.63 21.8 12.037 24z" />
        </symbol>
        <symbol id="rank" viewBox="0 0 24 24">
            <path d="M20.864 23.649q-.753.188-1.493.263-.728.088-1.493.088-2.183 0-3.513-1.204-1.317-1.192-1.43-3.425-.301.05-.59.063-.276.025-.539.025-1.97 0-3.588-.653-1.606-.652-2.735-1.894-1.13-1.242-1.744-3.049-.602-1.806-.602-4.127 0-2.283.602-4.09.602-1.82 1.756-3.111Q6.6 1.305 8.23.653 9.874 0 11.806 0q2.007 0 3.6.665 1.606.653 2.723 1.87 1.142 1.254 1.744 3.073.614 1.82.614 4.128 0 3.425-1.405 5.77-1.392 2.347-3.75 3.288.05 1.43.677 2.22.627.79 2.283.79.514 0 1.217-.162.715-.15 1.016-.276h.339zm-2.96-13.913q0-3.638-1.632-5.608-1.63-1.982-4.453-1.982-2.848 0-4.48 1.982-1.618 1.97-1.618 5.608 0 3.676 1.656 5.633 1.656 1.945 4.442 1.945t4.428-1.945q1.656-1.957 1.656-5.633z" />
        </symbol>
    </defs>
    <use href="#card" x="0" y="0" fill="#fff" />
    <use href="#rank" x="5" y="-64" fill="#f00" width="12" />
    <use href="#suit" x="5" y="-48" fill="#f00" width="12" />
    <use href="#rank" x="5" y="-64" fill="#f00" width="12" transform="rotate(180, 50, 75)" />
    <use href="#suit" x="5" y="-48" fill="#f00" width="12" transform="rotate(180, 50, 75)" />
    <use href="#suit" x="26" y="0" fill="#f00" width="48"/>
</svg>