<?xml version="1.0" encoding="UTF-8"?>
<svg version="1.1" viewBox="0 0 100 150" xmlns="http://www.w3.org/2000/svg">
    <defs>
        <symbol id="card" viewBox="0 0 100 150">
            <path d="#fff" />
        </symbol>
        <symbol id="suit" viewBox="0 0 24 24">
            <path d="M12.019 0q.507 2.106 1.56 3.763 1.052 1.657 3.743 4.114 2.71 2.437 3.431 3.743t.722 2.651q0 1.872-1.248 3.12t-3.041 1.248q-1.521 0-2.769-.936-1.228-.956-2.184-2.769.02 2.866.741 4.562.741 1.677 2.34 2.652 1.618.955 4.29 1.13l.136.722H4.279l.156-.721q3.587 0 5.556-2.087 1.989-2.105 1.91-6.258-.877 1.852-2.183 2.788-1.287.917-2.924.917-1.755 0-3.022-1.268-1.248-1.267-1.248-3.041 0-1.423.643-2.574.878-1.598 2.847-3.217 1.969-1.618 2.905-2.67 1.423-1.619 2.066-2.886Q11.648 1.716 12.02 0z" />
        </symbol>
        <symbol id="rank" viewBox="0 0 24 24">
            <path d="M20.864 23.649q-.753.188-1.493.263-.728.088-1.493.088-2.183 0-3.513-1.204-1.317-1.192-1.43-3.425-.301.05-.59.063-.276.025-.539.025-1.97 0-3.588-.653-1.606-.652-2.735-1.894-1.13-1.242-1.744-3.049-.602-1.806-.602-4.127 0-2.283.602-4.09.602-1.82 1.756-3.111Q6.6 1.305 8.23.653 9.874 0 11.806 0q2.007 0 3.6.665 1.606.653 2.723 1.87 1.142 1.254 1.744 3.073.614 1.82.614 4.128 0 3.425-1.405 5.77-1.392 2.347-3.75 3.288.05 1.43.677 2.22.627.79 2.283.79.514 0 1.217-.162.715-.15 1.016-.276h.339zm-2.96-13.913q0-3.638-1.632-5.608-1.63-1.982-4.453-1.982-2.848 0-4.48 1.982-1.618 1.97-1.618 5.608 0 3.676 1.656 5.633 1.656 1.945 4.442 1.945t4.428-1.945q1.656-1.957 1.656-5.633z" />
        </symbol>
    </defs>
    <use href="#card" x="0" y="0" fill="#fff" />
    <use href="#rank" x="5" y="-64" fill="#000" width="12" />
    <use href="#suit" x="5" y="-48" fill="#000" width="12" />
    <use href="#rank" x="5" y="-64" fill="#000" width="12" transform="rotate(180, 50, 75)" />
    <use href="#suit" x="5" y="-48" fill="#000" width="12" transform="rotate(180, 50, 75)" />
    <use href="#suit" x="26" y="0" fill="#000" width="48"/>
</svg>