<?xml version="1.0" encoding="UTF-8"?>
<svg version="1.1" viewBox="0 0 100 150" xmlns="http://www.w3.org/2000/svg">
    <defs>
        <symbol id="card" viewBox="0 0 100 150">
            <path d="#fff" />
        </symbol>
        <symbol id="suit" viewBox="0 0 24 24">
            <path d="M20.302 24H3.796l.156-.663q3.211-.682 4.263-1.345 1.576-.994 2.569-2.944 1.012-1.95 1.012-4.114 0-.312-.02-.897-1.187 2.418-2.9 3.53-1.693 1.11-3.464 1.11-2.258 0-3.835-1.579T0 13.218q0-2.261 1.44-3.801 1.441-1.56 3.271-1.56 1.168 0 3.173.994-.818-1.364-1.07-2.047-.234-.702-.234-1.5 0-2.223 1.537-3.764T11.952 0t3.854 1.54q1.576 1.54 1.576 3.666 0 1.735-1.343 3.645 1.635-.78 1.966-.877.526-.156 1.188-.156 1.946 0 3.367 1.54Q24 10.88 24 13.141q0 2.34-1.576 3.938-1.557 1.58-3.757 1.58-1.226 0-2.53-.586-1.285-.604-2.239-1.599-.681-.72-1.693-2.437.078 3.1.934 4.914.876 1.793 2.667 2.983 1.207.799 4.34 1.403z" />
        </symbol>
        <symbol id="rank" viewBox="0 0 24 24">
            <path d="M20.864 23.649q-.753.188-1.493.263-.728.088-1.493.088-2.183 0-3.513-1.204-1.317-1.192-1.43-3.425-.301.05-.59.063-.276.025-.539.025-1.97 0-3.588-.653-1.606-.652-2.735-1.894-1.13-1.242-1.744-3.049-.602-1.806-.602-4.127 0-2.283.602-4.09.602-1.82 1.756-3.111Q6.6 1.305 8.23.653 9.874 0 11.806 0q2.007 0 3.6.665 1.606.653 2.723 1.87 1.142 1.254 1.744 3.073.614 1.82.614 4.128 0 3.425-1.405 5.77-1.392 2.347-3.75 3.288.05 1.43.677 2.22.627.79 2.283.79.514 0 1.217-.162.715-.15 1.016-.276h.339zm-2.96-13.913q0-3.638-1.632-5.608-1.63-1.982-4.453-1.982-2.848 0-4.48 1.982-1.618 1.97-1.618 5.608 0 3.676 1.656 5.633 1.656 1.945 4.442 1.945t4.428-1.945q1.656-1.957 1.656-5.633z" />
        </symbol>
    </defs>
    <use href="#card" x="0" y="0" fill="#fff" />
    <use href="#rank" x="5" y="-64" fill="#000" width="12" />
    <use href="#suit" x="5" y="-48" fill="#000" width="12" />
    <use href="#rank" x="5" y="-64" fill="#000" width="12" transform="rotate(180, 50, 75)" />
    <use href="#suit" x="5" y="-48" fill="#000" width="12" transform="rotate(180, 50, 75)" />
    <use href="#suit" x="26" y="0" fill="#000" width="48"/>
</svg>