<?xml version="1.0" encoding="UTF-8"?>
<svg version="1.1" viewBox="0 0 100 150" xmlns="http://www.w3.org/2000/svg">
    <defs>
        <symbol id="card" viewBox="0 0 100 150">
            <path d="#fff" />
        </symbol>
        <symbol id="suit" viewBox="0 0 24 24">
            <path d="M11.962 0q1.702 2.888 4.188 6.196 2.869 3.825 4.628 5.794-1.415 1.492-4.628 5.776-2.6 3.48-4.169 6.234-.516-.994-1.415-2.314-1.549-2.295-3.844-5.335-.497-.67-3.5-4.36 1.932-2.2 4.973-6.273Q10.45 2.696 11.962 0z" />
        </symbol>
        <symbol id="rank" viewBox="0 0 24 24">
            <path d="M20.171 16.031q0 3.52-2.326 5.752Q15.535 24 12.171 24q-1.705 0-3.1-.527-1.396-.527-2.466-1.566-1.333-1.287-2.062-3.41-.713-2.125-.713-5.117 0-3.07.651-5.442.667-2.372 2.109-4.217Q7.954 1.969 10.109.992 12.264 0 15.132 0q.915 0 1.535.077.62.078 1.256.28v2.96h-.155q-.434-.232-1.318-.434-.868-.217-1.783-.217-3.333 0-5.318 2.093-1.984 2.078-2.31 5.628 1.303-.79 2.558-1.193 1.272-.42 2.93-.42 1.474 0 2.59.28 1.132.264 2.31 1.085 1.364.946 2.046 2.388.698 1.442.698 3.504zm-3.147.124q0-1.442-.434-2.388-.419-.945-1.396-1.643-.713-.496-1.581-.651-.868-.155-1.814-.155-1.318 0-2.45.31-1.132.31-2.325.961-.031.341-.047.667-.015.31-.015.79 0 2.45.496 3.877.511 1.41 1.395 2.232.713.682 1.535 1.008.837.31 1.814.31 2.248 0 3.535-1.364 1.287-1.38 1.287-3.954z" />
        </symbol>
    </defs>
    <use href="#card" x="0" y="0" fill="#fff" />
    <use href="#rank" x="5" y="-64" fill="#f00" width="12" />
    <use href="#suit" x="5" y="-48" fill="#f00" width="12" />
    <use href="#rank" x="5" y="-64" fill="#f00" width="12" transform="rotate(180, 50, 75)" />
    <use href="#suit" x="5" y="-48" fill="#f00" width="12" transform="rotate(180, 50, 75)" />
    <use href="#suit" x="26" y="0" fill="#f00" width="48"/>
</svg>