<?xml version="1.0" encoding="UTF-8"?>
<svg version="1.1" viewBox="0 0 100 150" xmlns="http://www.w3.org/2000/svg">
    <defs>
        <symbol id="card" viewBox="0 0 100 150">
            <path d="#fff" />
        </symbol>
        <symbol id="suit" viewBox="0 0 24 24">
            <path d="M12.019 0q.507 2.106 1.56 3.763 1.052 1.657 3.743 4.114 2.71 2.437 3.431 3.743t.722 2.651q0 1.872-1.248 3.12t-3.041 1.248q-1.521 0-2.769-.936-1.228-.956-2.184-2.769.02 2.866.741 4.562.741 1.677 2.34 2.652 1.618.955 4.29 1.13l.136.722H4.279l.156-.721q3.587 0 5.556-2.087 1.989-2.105 1.91-6.258-.877 1.852-2.183 2.788-1.287.917-2.924.917-1.755 0-3.022-1.268-1.248-1.267-1.248-3.041 0-1.423.643-2.574.878-1.598 2.847-3.217 1.969-1.618 2.905-2.67 1.423-1.619 2.066-2.886Q11.648 1.716 12.02 0z" />
        </symbol>
        <symbol id="rank" viewBox="0 0 24 24">
            <path d="M20.171 16.031q0 3.52-2.326 5.752Q15.535 24 12.171 24q-1.705 0-3.1-.527-1.396-.527-2.466-1.566-1.333-1.287-2.062-3.41-.713-2.125-.713-5.117 0-3.07.651-5.442.667-2.372 2.109-4.217Q7.954 1.969 10.109.992 12.264 0 15.132 0q.915 0 1.535.077.62.078 1.256.28v2.96h-.155q-.434-.232-1.318-.434-.868-.217-1.783-.217-3.333 0-5.318 2.093-1.984 2.078-2.31 5.628 1.303-.79 2.558-1.193 1.272-.42 2.93-.42 1.474 0 2.59.28 1.132.264 2.31 1.085 1.364.946 2.046 2.388.698 1.442.698 3.504zm-3.147.124q0-1.442-.434-2.388-.419-.945-1.396-1.643-.713-.496-1.581-.651-.868-.155-1.814-.155-1.318 0-2.45.31-1.132.31-2.325.961-.031.341-.047.667-.015.31-.015.79 0 2.45.496 3.877.511 1.41 1.395 2.232.713.682 1.535 1.008.837.31 1.814.31 2.248 0 3.535-1.364 1.287-1.38 1.287-3.954z" />
        </symbol>
    </defs>
    <use href="#card" x="0" y="0" fill="#fff" />
    <use href="#rank" x="5" y="-64" fill="#000" width="12" />
    <use href="#suit" x="5" y="-48" fill="#000" width="12" />
    <use href="#rank" x="5" y="-64" fill="#000" width="12" transform="rotate(180, 50, 75)" />
    <use href="#suit" x="5" y="-48" fill="#000" width="12" transform="rotate(180, 50, 75)" />
    <use href="#suit" x="26" y="0" fill="#000" width="48"/>
</svg>