<?xml version="1.0" encoding="UTF-8"?>
<svg version="1.1" viewBox="0 0 100 150" xmlns="http://www.w3.org/2000/svg">
    <defs>
        <symbol id="card" viewBox="0 0 100 150">
            <path d="#fff" />
        </symbol>
        <symbol id="suit" viewBox="0 0 24 24">
            <path d="M20.302 24H3.796l.156-.663q3.211-.682 4.263-1.345 1.576-.994 2.569-2.944 1.012-1.95 1.012-4.114 0-.312-.02-.897-1.187 2.418-2.9 3.53-1.693 1.11-3.464 1.11-2.258 0-3.835-1.579T0 13.218q0-2.261 1.44-3.801 1.441-1.56 3.271-1.56 1.168 0 3.173.994-.818-1.364-1.07-2.047-.234-.702-.234-1.5 0-2.223 1.537-3.764T11.952 0t3.854 1.54q1.576 1.54 1.576 3.666 0 1.735-1.343 3.645 1.635-.78 1.966-.877.526-.156 1.188-.156 1.946 0 3.367 1.54Q24 10.88 24 13.141q0 2.34-1.576 3.938-1.557 1.58-3.757 1.58-1.226 0-2.53-.586-1.285-.604-2.239-1.599-.681-.72-1.693-2.437.078 3.1.934 4.914.876 1.793 2.667 2.983 1.207.799 4.34 1.403z" />
        </symbol>
        <symbol id="rank" viewBox="0 0 24 24">
            <path d="M24 11.985q0 6.209-1.698 9.12Q20.618 24 17.063 24q-3.61 0-5.282-2.941-1.657-2.942-1.657-9.043 0-6.147 1.684-9.074Q13.492.001 17.062.001q3.61 0 5.268 2.988Q24 5.962 24 11.985zm-3.543 7.03q.471-1.255.633-2.942.175-1.703.175-4.088 0-2.353-.175-4.088-.162-1.734-.647-2.942-.471-1.192-1.293-1.796-.809-.603-2.088-.603-1.267 0-2.102.603-.822.604-1.307 1.827-.458 1.146-.633 2.989-.162 1.842-.162 4.041 0 2.416.148 4.041.149 1.626.634 2.911.444 1.208 1.253 1.843.821.635 2.169.635 1.266 0 2.101-.604.836-.604 1.294-1.827zm-9.598 4.505H-.001v-2.353h4.177V5.714H0V3.608q.849 0 1.819-.155.97-.17 1.468-.48.62-.387.97-.975.364-.604.418-1.61h2.088v20.779h4.096z" />
        </symbol>
    </defs>
    <use href="#card" x="0" y="0" fill="#fff" />
    <use href="#rank" x="5" y="-64" fill="#000" width="12" />
    <use href="#suit" x="5" y="-48" fill="#000" width="12" />
    <use href="#rank" x="5" y="-64" fill="#000" width="12" transform="rotate(180, 50, 75)" />
    <use href="#suit" x="5" y="-48" fill="#000" width="12" transform="rotate(180, 50, 75)" />
    <use href="#suit" x="26" y="0" fill="#000" width="48"/>
</svg>