<?xml version="1.0" encoding="UTF-8"?>
<svg version="1.1" viewBox="0 0 100 150" xmlns="http://www.w3.org/2000/svg">
    <defs>
        <symbol id="card" viewBox="0 0 100 150">
            <path d="#fff" />
        </symbol>
        <symbol id="suit" viewBox="0 0 24 24">
            <path d="M12.038 24q-.593-2.257-1.702-4.226-1.09-1.99-4.245-6.158-2.314-3.06-2.85-3.882-.88-1.339-1.281-2.448-.383-1.128-.383-2.276 0-2.122 1.416-3.557Q4.408.02 6.493.02q2.103 0 3.652 1.492 1.166 1.109 1.893 3.308.631-2.161 1.778-3.29Q15.404 0 17.488 0q2.065 0 3.5 1.435 1.434 1.415 1.434 3.385 0 1.721-.841 3.595-.842 1.855-3.251 4.877-3.137 3.958-4.57 6.502Q12.63 21.8 12.037 24z" />
        </symbol>
        <symbol id="rank" viewBox="0 0 24 24">
            <path d="M24 11.985q0 6.209-1.698 9.12Q20.618 24 17.063 24q-3.61 0-5.282-2.941-1.657-2.942-1.657-9.043 0-6.147 1.684-9.074Q13.492.001 17.062.001q3.61 0 5.268 2.988Q24 5.962 24 11.985zm-3.543 7.03q.471-1.255.633-2.942.175-1.703.175-4.088 0-2.353-.175-4.088-.162-1.734-.647-2.942-.471-1.192-1.293-1.796-.809-.603-2.088-.603-1.267 0-2.102.603-.822.604-1.307 1.827-.458 1.146-.633 2.989-.162 1.842-.162 4.041 0 2.416.148 4.041.149 1.626.634 2.911.444 1.208 1.253 1.843.821.635 2.169.635 1.266 0 2.101-.604.836-.604 1.294-1.827zm-9.598 4.505H-.001v-2.353h4.177V5.714H0V3.608q.849 0 1.819-.155.97-.17 1.468-.48.62-.387.97-.975.364-.604.418-1.61h2.088v20.779h4.096z" />
        </symbol>
    </defs>
    <use href="#card" x="0" y="0" fill="#fff" />
    <use href="#rank" x="5" y="-64" fill="#f00" width="12" />
    <use href="#suit" x="5" y="-48" fill="#f00" width="12" />
    <use href="#rank" x="5" y="-64" fill="#f00" width="12" transform="rotate(180, 50, 75)" />
    <use href="#suit" x="5" y="-48" fill="#f00" width="12" transform="rotate(180, 50, 75)" />
    <use href="#suit" x="26" y="0" fill="#f00" width="48"/>
</svg>