<?xml version="1.0" encoding="UTF-8"?>
<svg version="1.1" viewBox="0 0 100 150" xmlns="http://www.w3.org/2000/svg">
    <defs>
        <symbol id="card" viewBox="0 0 100 150">
            <path d="#fff" />
        </symbol>
        <symbol id="suit" viewBox="0 0 24 24">
            <path d="M12.019 0q.507 2.106 1.56 3.763 1.052 1.657 3.743 4.114 2.71 2.437 3.431 3.743t.722 2.651q0 1.872-1.248 3.12t-3.041 1.248q-1.521 0-2.769-.936-1.228-.956-2.184-2.769.02 2.866.741 4.562.741 1.677 2.34 2.652 1.618.955 4.29 1.13l.136.722H4.279l.156-.721q3.587 0 5.556-2.087 1.989-2.105 1.91-6.258-.877 1.852-2.183 2.788-1.287.917-2.924.917-1.755 0-3.022-1.268-1.248-1.267-1.248-3.041 0-1.423.643-2.574.878-1.598 2.847-3.217 1.969-1.618 2.905-2.67 1.423-1.619 2.066-2.886Q11.648 1.716 12.02 0z" />
        </symbol>
        <symbol id="rank" viewBox="0 0 24 24">
            <path d="M24 11.985q0 6.209-1.698 9.12Q20.618 24 17.063 24q-3.61 0-5.282-2.941-1.657-2.942-1.657-9.043 0-6.147 1.684-9.074Q13.492.001 17.062.001q3.61 0 5.268 2.988Q24 5.962 24 11.985zm-3.543 7.03q.471-1.255.633-2.942.175-1.703.175-4.088 0-2.353-.175-4.088-.162-1.734-.647-2.942-.471-1.192-1.293-1.796-.809-.603-2.088-.603-1.267 0-2.102.603-.822.604-1.307 1.827-.458 1.146-.633 2.989-.162 1.842-.162 4.041 0 2.416.148 4.041.149 1.626.634 2.911.444 1.208 1.253 1.843.821.635 2.169.635 1.266 0 2.101-.604.836-.604 1.294-1.827zm-9.598 4.505H-.001v-2.353h4.177V5.714H0V3.608q.849 0 1.819-.155.97-.17 1.468-.48.62-.387.97-.975.364-.604.418-1.61h2.088v20.779h4.096z" />
        </symbol>
    </defs>
    <use href="#card" x="0" y="0" fill="#fff" />
    <use href="#rank" x="5" y="-64" fill="#000" width="12" />
    <use href="#suit" x="5" y="-48" fill="#000" width="12" />
    <use href="#rank" x="5" y="-64" fill="#000" width="12" transform="rotate(180, 50, 75)" />
    <use href="#suit" x="5" y="-48" fill="#000" width="12" transform="rotate(180, 50, 75)" />
    <use href="#suit" x="26" y="0" fill="#000" width="48"/>
</svg>