<?xml version="1.0" encoding="UTF-8"?>
<svg version="1.1" viewBox="0 0 100 150" xmlns="http://www.w3.org/2000/svg">
    <defs>
        <symbol id="card" viewBox="0 0 100 150">
            <path d="#fff" />
        </symbol>
        <symbol id="suit" viewBox="0 0 24 24">
            <path d="M11.962 0q1.702 2.888 4.188 6.196 2.869 3.825 4.628 5.794-1.415 1.492-4.628 5.776-2.6 3.48-4.169 6.234-.516-.994-1.415-2.314-1.549-2.295-3.844-5.335-.497-.67-3.5-4.36 1.932-2.2 4.973-6.273Q10.45 2.696 11.962 0z" />
        </symbol>
        <symbol id="rank" viewBox="0 0 24 24">
            <path d="M24 11.985q0 6.209-1.698 9.12Q20.618 24 17.063 24q-3.61 0-5.282-2.941-1.657-2.942-1.657-9.043 0-6.147 1.684-9.074Q13.492.001 17.062.001q3.61 0 5.268 2.988Q24 5.962 24 11.985zm-3.543 7.03q.471-1.255.633-2.942.175-1.703.175-4.088 0-2.353-.175-4.088-.162-1.734-.647-2.942-.471-1.192-1.293-1.796-.809-.603-2.088-.603-1.267 0-2.102.603-.822.604-1.307 1.827-.458 1.146-.633 2.989-.162 1.842-.162 4.041 0 2.416.148 4.041.149 1.626.634 2.911.444 1.208 1.253 1.843.821.635 2.169.635 1.266 0 2.101-.604.836-.604 1.294-1.827zm-9.598 4.505H-.001v-2.353h4.177V5.714H0V3.608q.849 0 1.819-.155.97-.17 1.468-.48.62-.387.97-.975.364-.604.418-1.61h2.088v20.779h4.096z" />
        </symbol>
    </defs>
    <use href="#card" x="0" y="0" fill="#fff" />
    <use href="#rank" x="5" y="-64" fill="#f00" width="12" />
    <use href="#suit" x="5" y="-48" fill="#f00" width="12" />
    <use href="#rank" x="5" y="-64" fill="#f00" width="12" transform="rotate(180, 50, 75)" />
    <use href="#suit" x="5" y="-48" fill="#f00" width="12" transform="rotate(180, 50, 75)" />
    <use href="#suit" x="26" y="0" fill="#f00" width="48"/>
</svg>