<?xml version="1.0" encoding="UTF-8"?>
<svg version="1.1" viewBox="0 0 100 150" xmlns="http://www.w3.org/2000/svg">
    <defs>
        <symbol id="card" viewBox="0 0 100 150">
            <path d="#fff" />
        </symbol>
        <symbol id="suit" viewBox="0 0 24 24">
            <path d="M20.302 24H3.796l.156-.663q3.211-.682 4.263-1.345 1.576-.994 2.569-2.944 1.012-1.95 1.012-4.114 0-.312-.02-.897-1.187 2.418-2.9 3.53-1.693 1.11-3.464 1.11-2.258 0-3.835-1.579T0 13.218q0-2.261 1.44-3.801 1.441-1.56 3.271-1.56 1.168 0 3.173.994-.818-1.364-1.07-2.047-.234-.702-.234-1.5 0-2.223 1.537-3.764T11.952 0t3.854 1.54q1.576 1.54 1.576 3.666 0 1.735-1.343 3.645 1.635-.78 1.966-.877.526-.156 1.188-.156 1.946 0 3.367 1.54Q24 10.88 24 13.141q0 2.34-1.576 3.938-1.557 1.58-3.757 1.58-1.226 0-2.53-.586-1.285-.604-2.239-1.599-.681-.72-1.693-2.437.078 3.1.934 4.914.876 1.793 2.667 2.983 1.207.799 4.34 1.403z" />
        </symbol>
        <symbol id="rank" viewBox="0 0 24 24">
            <path d="M17.888 12.426q.743.665 1.222 1.671.48 1.006.48 2.6 0 1.578-.572 2.893-.573 1.316-1.61 2.29-1.16 1.084-2.739 1.61-1.563.51-3.435.51-1.919 0-3.775-.464-1.857-.449-3.049-.99v-3.234h.232q1.316.866 3.095 1.439 1.78.573 3.435.573.975 0 2.074-.325t1.78-.96q.711-.68 1.051-1.5.356-.82.356-2.074 0-1.238-.402-2.043-.387-.82-1.083-1.284-.696-.48-1.687-.65-.99-.186-2.135-.186H9.733V9.733h1.083q2.352 0 3.745-.974 1.408-.99 1.408-2.878 0-.836-.356-1.455-.356-.634-.99-1.037-.665-.402-1.424-.557-.758-.155-1.717-.155-1.47 0-3.126.527Q6.7 3.73 5.23 4.689h-.154V1.455Q6.174.913 8 .465 9.842 0 11.56 0q1.686 0 2.97.31 1.284.31 2.321.99 1.114.743 1.687 1.795.573 1.053.573 2.46 0 1.92-1.362 3.358-1.346 1.424-3.188 1.795v.217q.743.124 1.702.526.96.387 1.625.975z" />
        </symbol>
    </defs>
    <use href="#card" x="0" y="0" fill="#fff" />
    <use href="#rank" x="5" y="-64" fill="#000" width="12" />
    <use href="#suit" x="5" y="-48" fill="#000" width="12" />
    <use href="#rank" x="5" y="-64" fill="#000" width="12" transform="rotate(180, 50, 75)" />
    <use href="#suit" x="5" y="-48" fill="#000" width="12" transform="rotate(180, 50, 75)" />
    <use href="#suit" x="26" y="0" fill="#000" width="48"/>
</svg>