<?xml version="1.0" encoding="UTF-8"?>
<svg version="1.1" viewBox="0 0 100 150" xmlns="http://www.w3.org/2000/svg">
    <defs>
        <symbol id="card" viewBox="0 0 100 150">
            <path d="#fff" />
        </symbol>
        <symbol id="suit" viewBox="0 0 24 24">
            <path d="M11.962 0q1.702 2.888 4.188 6.196 2.869 3.825 4.628 5.794-1.415 1.492-4.628 5.776-2.6 3.48-4.169 6.234-.516-.994-1.415-2.314-1.549-2.295-3.844-5.335-.497-.67-3.5-4.36 1.932-2.2 4.973-6.273Q10.45 2.696 11.962 0z" />
        </symbol>
        <symbol id="rank" viewBox="0 0 24 24">
            <path d="M17.888 12.426q.743.665 1.222 1.671.48 1.006.48 2.6 0 1.578-.572 2.893-.573 1.316-1.61 2.29-1.16 1.084-2.739 1.61-1.563.51-3.435.51-1.919 0-3.775-.464-1.857-.449-3.049-.99v-3.234h.232q1.316.866 3.095 1.439 1.78.573 3.435.573.975 0 2.074-.325t1.78-.96q.711-.68 1.051-1.5.356-.82.356-2.074 0-1.238-.402-2.043-.387-.82-1.083-1.284-.696-.48-1.687-.65-.99-.186-2.135-.186H9.733V9.733h1.083q2.352 0 3.745-.974 1.408-.99 1.408-2.878 0-.836-.356-1.455-.356-.634-.99-1.037-.665-.402-1.424-.557-.758-.155-1.717-.155-1.47 0-3.126.527Q6.7 3.73 5.23 4.689h-.154V1.455Q6.174.913 8 .465 9.842 0 11.56 0q1.686 0 2.97.31 1.284.31 2.321.99 1.114.743 1.687 1.795.573 1.053.573 2.46 0 1.92-1.362 3.358-1.346 1.424-3.188 1.795v.217q.743.124 1.702.526.96.387 1.625.975z" />
        </symbol>
    </defs>
    <use href="#card" x="0" y="0" fill="#fff" />
    <use href="#rank" x="5" y="-64" fill="#f00" width="12" />
    <use href="#suit" x="5" y="-48" fill="#f00" width="12" />
    <use href="#rank" x="5" y="-64" fill="#f00" width="12" transform="rotate(180, 50, 75)" />
    <use href="#suit" x="5" y="-48" fill="#f00" width="12" transform="rotate(180, 50, 75)" />
    <use href="#suit" x="26" y="0" fill="#f00" width="48"/>
</svg>