<?xml version="1.0" encoding="UTF-8"?>
<svg version="1.1" viewBox="0 0 100 150" xmlns="http://www.w3.org/2000/svg">
    <defs>
        <symbol id="card" viewBox="0 0 100 150">
            <path d="#fff" />
        </symbol>
        <symbol id="suit" viewBox="0 0 24 24">
            <path d="M11.962 0q1.702 2.888 4.188 6.196 2.869 3.825 4.628 5.794-1.415 1.492-4.628 5.776-2.6 3.48-4.169 6.234-.516-.994-1.415-2.314-1.549-2.295-3.844-5.335-.497-.67-3.5-4.36 1.932-2.2 4.973-6.273Q10.45 2.696 11.962 0z" />
        </symbol>
        <symbol id="rank" viewBox="0 0 24 24">
            <path d="M19.958 24H4.042v-3.3l3.316-2.842q1.673-1.421 3.11-2.826 3.032-2.937 4.153-4.658 1.121-1.737 1.121-3.742 0-1.832-1.216-2.858-1.2-1.042-3.363-1.042-1.437 0-3.11.505-1.674.505-3.269 1.547h-.158V1.468Q5.747.916 7.61.458 9.49 0 11.242 0q3.616 0 5.668 1.753 2.053 1.736 2.053 4.72 0 1.343-.347 2.511-.332 1.153-.995 2.195-.616.979-1.453 1.926-.82.948-2.005 2.1-1.69 1.658-3.49 3.221-1.8 1.548-3.363 2.874h12.647z" />
        </symbol>
    </defs>
    <use href="#card" x="0" y="0" fill="#fff" />
    <use href="#rank" x="5" y="-64" fill="#f00" width="12" />
    <use href="#suit" x="5" y="-48" fill="#f00" width="12" />
    <use href="#rank" x="5" y="-64" fill="#f00" width="12" transform="rotate(180, 50, 75)" />
    <use href="#suit" x="5" y="-48" fill="#f00" width="12" transform="rotate(180, 50, 75)" />
    <use href="#suit" x="26" y="0" fill="#f00" width="48"/>
</svg>