<?xml version="1.0" encoding="UTF-8"?>
<svg version="1.1" viewBox="0 0 100 150" xmlns="http://www.w3.org/2000/svg">
    <defs>
        <symbol id="card" viewBox="0 0 100 150">
            <path d="#fff" />
        </symbol>
        <symbol id="suit" viewBox="0 0 24 24">
            <path d="M12.019 0q.507 2.106 1.56 3.763 1.052 1.657 3.743 4.114 2.71 2.437 3.431 3.743t.722 2.651q0 1.872-1.248 3.12t-3.041 1.248q-1.521 0-2.769-.936-1.228-.956-2.184-2.769.02 2.866.741 4.562.741 1.677 2.34 2.652 1.618.955 4.29 1.13l.136.722H4.279l.156-.721q3.587 0 5.556-2.087 1.989-2.105 1.91-6.258-.877 1.852-2.183 2.788-1.287.917-2.924.917-1.755 0-3.022-1.268-1.248-1.267-1.248-3.041 0-1.423.643-2.574.878-1.598 2.847-3.217 1.969-1.618 2.905-2.67 1.423-1.619 2.066-2.886Q11.648 1.716 12.02 0z" />
        </symbol>
        <symbol id="rank" viewBox="0 0 24 24">
            <path d="M19.958 24H4.042v-3.3l3.316-2.842q1.673-1.421 3.11-2.826 3.032-2.937 4.153-4.658 1.121-1.737 1.121-3.742 0-1.832-1.216-2.858-1.2-1.042-3.363-1.042-1.437 0-3.11.505-1.674.505-3.269 1.547h-.158V1.468Q5.747.916 7.61.458 9.49 0 11.242 0q3.616 0 5.668 1.753 2.053 1.736 2.053 4.72 0 1.343-.347 2.511-.332 1.153-.995 2.195-.616.979-1.453 1.926-.82.948-2.005 2.1-1.69 1.658-3.49 3.221-1.8 1.548-3.363 2.874h12.647z" />
        </symbol>
    </defs>
    <use href="#card" x="0" y="0" fill="#fff" />
    <use href="#rank" x="5" y="-64" fill="#000" width="12" />
    <use href="#suit" x="5" y="-48" fill="#000" width="12" />
    <use href="#rank" x="5" y="-64" fill="#000" width="12" transform="rotate(180, 50, 75)" />
    <use href="#suit" x="5" y="-48" fill="#000" width="12" transform="rotate(180, 50, 75)" />
    <use href="#suit" x="26" y="0" fill="#000" width="48"/>
</svg>